<?xml version="1.0" standalone="no"?>
<!DOCTYPE svg PUBLIC "-//W3C//DTD SVG 20010904//EN"
 "http://www.w3.org/TR/2001/REC-SVG-20010904/DTD/svg10.dtd">
<svg version="1.0" xmlns="http://www.w3.org/2000/svg"
 width="260.000000pt" height="260.000000pt" viewBox="0 0 260.000000 260.000000"
 preserveAspectRatio="xMidYMid meet">

<g transform="translate(0.000000,260.000000) scale(0.100000,-0.100000)"
fill="#ffffff" stroke="none">
<path d="M1252 2259 c-115 -57 -134 -213 -36 -298 85 -75 207 -58 271 38 105
156 -66 344 -235 260z"/>
<path d="M1183 1839 c-71 -35 -78 -55 -117 -339 -20 -140 -36 -273 -36 -295 0
-65 36 -122 130 -204 213 -186 200 -170 200 -231 1 -115 27 -376 40 -397 20
-31 63 -53 105 -53 29 0 45 8 71 34 41 41 41 44 19 339 -10 136 -21 214 -32
240 -10 24 -52 69 -120 127 -118 104 -113 88 -88 267 24 170 19 162 66 103 22
-28 50 -55 63 -60 12 -4 104 -10 204 -12 l182 -3 26 26 c42 42 33 123 -17 150
-12 6 -87 14 -167 17 l-146 7 -106 134 c-137 174 -181 198 -277 150z"/>
<path d="M784 1838 c-12 -5 -27 -20 -33 -32 -14 -29 -73 -457 -69 -508 4 -56
33 -75 134 -89 94 -13 128 -8 148 24 20 30 87 512 76 543 -13 34 -47 52 -120
63 -79 13 -108 13 -136 -1z"/>
<path d="M1822 1718 c-18 -18 -16 -118 2 -118 8 0 21 -3 29 -6 12 -4 16 6 19
48 6 76 -16 110 -50 76z"/>
<path d="M1790 1288 c0 -7 -11 -221 -25 -475 -13 -254 -22 -469 -19 -478 7
-18 40 -20 51 -2 4 6 19 227 33 490 l25 477 -32 0 c-20 0 -33 -5 -33 -12z"/>
<path d="M1027 1033 c-3 -4 -46 -138 -97 -297 -102 -320 -105 -339 -50 -388
22 -20 41 -28 68 -28 42 0 97 29 106 57 4 10 42 126 86 258 l79 240 -47 43
c-87 81 -140 123 -145 115z"/>
</g>
</svg>
